<?xml version="1.0" encoding="UTF-8" standalone="no"?>
<!DOCTYPE svg PUBLIC "-//W3C//DTD SVG 1.1//EN"
 "http://www.w3.org/Graphics/SVG/1.1/DTD/svg11.dtd">
<!-- Generated by graphviz version 2.38.0 (20140413.2041)
 -->
<!-- Title: %3 Pages: 1 -->
<svg width="432pt" height="98pt"
 viewBox="0.00 0.00 432.37 98.00" xmlns="http://www.w3.org/2000/svg" xmlns:xlink="http://www.w3.org/1999/xlink">
<g id="graph0" class="graph" transform="scale(1 1) rotate(0) translate(4 94)">
<title>%3</title>
<polygon fill="white" stroke="none" points="-4,4 -4,-94 428.37,-94 428.37,4 -4,4"/>
<!-- ChartResource -->
<g id="node1" class="node"><title>ChartResource</title>
<ellipse fill="none" stroke="black" cx="73.4435" cy="-45" rx="73.387" ry="18"/>
<text text-anchor="middle" x="73.4435" y="-41.3" font-family="Times New Roman,serif" font-size="14.00">Created by Chart</text>
</g>
<!-- CreatedResource -->
<g id="node2" class="node"><title>CreatedResource</title>
<ellipse fill="none" stroke="black" stroke-dasharray="5,2" cx="330.129" cy="-72" rx="94.4839" ry="18"/>
<text text-anchor="middle" x="330.129" y="-68.3" font-family="Times New Roman,serif" font-size="14.00">Created by Kubernetes</text>
</g>
<!-- ChartResource&#45;&gt;CreatedResource -->
<g id="edge1" class="edge"><title>ChartResource&#45;&gt;CreatedResource</title>
<path fill="none" stroke="black" stroke-dasharray="5,2" d="M141.026,-52.0587C170.417,-55.1745 205.449,-58.8883 237.268,-62.2616"/>
<polygon fill="black" stroke="black" points="237.162,-65.7698 247.475,-63.3437 237.9,-58.8089 237.162,-65.7698"/>
<text text-anchor="middle" x="191.387" y="-63.8" font-family="Times New Roman,serif" font-size="14.00">templates</text>
</g>
<!-- ExternalResource -->
<g id="node3" class="node"><title>ExternalResource</title>
<ellipse fill="none" stroke="black" stroke-dasharray="1,5" cx="330.129" cy="-18" rx="77.1866" ry="18"/>
<text text-anchor="middle" x="330.129" y="-14.3" font-family="Times New Roman,serif" font-size="14.00">External Resource</text>
</g>
<!-- ChartResource&#45;&gt;ExternalResource -->
<g id="edge2" class="edge"><title>ChartResource&#45;&gt;ExternalResource</title>
<path fill="none" stroke="black" d="M141.026,-37.9413C174.16,-34.4288 214.461,-30.1563 249.248,-26.4684"/>
<polygon fill="black" stroke="black" points="249.801,-29.9295 259.376,-25.3947 249.063,-22.9685 249.801,-29.9295"/>
<text text-anchor="middle" x="191.387" y="-37.8" font-family="Times New Roman,serif" font-size="14.00">selects</text>
</g>
</g>
</svg>
