<?xml version="1.0" encoding="UTF-8" standalone="no"?>
<!DOCTYPE svg PUBLIC "-//W3C//DTD SVG 1.1//EN"
 "http://www.w3.org/Graphics/SVG/1.1/DTD/svg11.dtd">
<!-- Generated by graphviz version 2.38.0 (20140413.2041)
 -->
<!-- Title: %3 Pages: 1 -->
<svg width="764pt" height="260pt"
 viewBox="0.00 0.00 763.93 260.00" xmlns="http://www.w3.org/2000/svg" xmlns:xlink="http://www.w3.org/1999/xlink">
<g id="graph0" class="graph" transform="scale(1 1) rotate(0) translate(4 256)">
<title>%3</title>
<polygon fill="white" stroke="none" points="-4,4 -4,-256 759.934,-256 759.934,4 -4,4"/>
<!-- HorizontalPodAutoscaler -->
<g id="node1" class="node"><title>HorizontalPodAutoscaler</title>
<ellipse fill="none" stroke="black" cx="102.691" cy="-234" rx="102.882" ry="18"/>
<text text-anchor="middle" x="102.691" y="-230.3" font-family="Times New Roman,serif" font-size="14.00">HorizontalPodAutoscaler</text>
</g>
<!-- Deployment -->
<g id="node2" class="node"><title>Deployment</title>
<ellipse fill="none" stroke="black" cx="102.691" cy="-162" rx="54.6905" ry="18"/>
<text text-anchor="middle" x="102.691" y="-158.3" font-family="Times New Roman,serif" font-size="14.00">Deployment</text>
</g>
<!-- HorizontalPodAutoscaler&#45;&gt;Deployment -->
<g id="edge1" class="edge"><title>HorizontalPodAutoscaler&#45;&gt;Deployment</title>
<path fill="none" stroke="black" d="M102.691,-215.697C102.691,-207.983 102.691,-198.712 102.691,-190.112"/>
<polygon fill="black" stroke="black" points="106.191,-190.104 102.691,-180.104 99.191,-190.104 106.191,-190.104"/>
</g>
<!-- Pod -->
<g id="node3" class="node"><title>Pod</title>
<ellipse fill="none" stroke="black" stroke-dasharray="5,2" cx="345.691" cy="-90" rx="27" ry="18"/>
<text text-anchor="middle" x="345.691" y="-86.3" font-family="Times New Roman,serif" font-size="14.00">Pod</text>
</g>
<!-- Deployment&#45;&gt;Pod -->
<g id="edge2" class="edge"><title>Deployment&#45;&gt;Pod</title>
<path fill="none" stroke="black" stroke-dasharray="5,2" d="M142.274,-149.597C189.311,-136.048 267.009,-113.666 311.528,-100.841"/>
<polygon fill="black" stroke="black" points="312.657,-104.158 321.297,-98.0271 310.719,-97.432 312.657,-104.158"/>
</g>
<!-- ConfigMap -->
<g id="node8" class="node"><title>ConfigMap</title>
<ellipse fill="none" stroke="black" cx="345.691" cy="-18" rx="51.9908" ry="18"/>
<text text-anchor="middle" x="345.691" y="-14.3" font-family="Times New Roman,serif" font-size="14.00">ConfigMap</text>
</g>
<!-- Pod&#45;&gt;ConfigMap -->
<g id="edge7" class="edge"><title>Pod&#45;&gt;ConfigMap</title>
<path fill="none" stroke="black" d="M345.691,-71.6966C345.691,-63.9827 345.691,-54.7125 345.691,-46.1124"/>
<polygon fill="black" stroke="black" points="349.191,-46.1043 345.691,-36.1043 342.191,-46.1044 349.191,-46.1043"/>
</g>
<!-- PersistentVolumeClaim -->
<g id="node9" class="node"><title>PersistentVolumeClaim</title>
<ellipse fill="none" stroke="black" cx="180.691" cy="-18" rx="94.7833" ry="18"/>
<text text-anchor="middle" x="180.691" y="-14.3" font-family="Times New Roman,serif" font-size="14.00">PersistentVolumeClaim</text>
</g>
<!-- Pod&#45;&gt;PersistentVolumeClaim -->
<g id="edge8" class="edge"><title>Pod&#45;&gt;PersistentVolumeClaim</title>
<path fill="none" stroke="black" d="M323.438,-79.5595C298.885,-69.143 258.678,-52.0853 227.182,-38.7234"/>
<polygon fill="black" stroke="black" points="228.286,-35.3902 217.714,-34.7066 225.553,-41.8342 228.286,-35.3902"/>
</g>
<!-- ServiceAccount -->
<g id="node10" class="node"><title>ServiceAccount</title>
<ellipse fill="none" stroke="black" cx="558.691" cy="-18" rx="68.7879" ry="18"/>
<text text-anchor="middle" x="558.691" y="-14.3" font-family="Times New Roman,serif" font-size="14.00">ServiceAccount</text>
</g>
<!-- Pod&#45;&gt;ServiceAccount -->
<g id="edge9" class="edge"><title>Pod&#45;&gt;ServiceAccount</title>
<path fill="none" stroke="black" d="M369.299,-81.2413C402.53,-70.3205 463.938,-50.1393 507.824,-35.7169"/>
<polygon fill="black" stroke="black" points="509.053,-38.9971 517.461,-32.5499 506.868,-32.347 509.053,-38.9971"/>
</g>
<!-- PodDisruptionBudget -->
<g id="node4" class="node"><title>PodDisruptionBudget</title>
<ellipse fill="none" stroke="black" cx="264.691" cy="-162" rx="89.8845" ry="18"/>
<text text-anchor="middle" x="264.691" y="-158.3" font-family="Times New Roman,serif" font-size="14.00">PodDisruptionBudget</text>
</g>
<!-- PodDisruptionBudget&#45;&gt;Pod -->
<g id="edge3" class="edge"><title>PodDisruptionBudget&#45;&gt;Pod</title>
<path fill="none" stroke="black" d="M283.887,-144.411C295.4,-134.462 310.124,-121.737 322.312,-111.204"/>
<polygon fill="black" stroke="black" points="324.618,-113.837 329.896,-104.65 320.041,-108.54 324.618,-113.837"/>
</g>
<!-- PodMonitor -->
<g id="node5" class="node"><title>PodMonitor</title>
<ellipse fill="none" stroke="black" cx="427.691" cy="-162" rx="55.4913" ry="18"/>
<text text-anchor="middle" x="427.691" y="-158.3" font-family="Times New Roman,serif" font-size="14.00">PodMonitor</text>
</g>
<!-- PodMonitor&#45;&gt;Pod -->
<g id="edge4" class="edge"><title>PodMonitor&#45;&gt;Pod</title>
<path fill="none" stroke="black" d="M408.672,-144.765C396.952,-134.759 381.828,-121.849 369.339,-111.187"/>
<polygon fill="black" stroke="black" points="371.452,-108.39 361.574,-104.559 366.907,-113.714 371.452,-108.39"/>
</g>
<!-- Ingress -->
<g id="node6" class="node"><title>Ingress</title>
<ellipse fill="none" stroke="black" cx="538.691" cy="-234" rx="37.0935" ry="18"/>
<text text-anchor="middle" x="538.691" y="-230.3" font-family="Times New Roman,serif" font-size="14.00">Ingress</text>
</g>
<!-- Service -->
<g id="node7" class="node"><title>Service</title>
<ellipse fill="none" stroke="black" cx="538.691" cy="-162" rx="37.8943" ry="18"/>
<text text-anchor="middle" x="538.691" y="-158.3" font-family="Times New Roman,serif" font-size="14.00">Service</text>
</g>
<!-- Ingress&#45;&gt;Service -->
<g id="edge5" class="edge"><title>Ingress&#45;&gt;Service</title>
<path fill="none" stroke="black" d="M538.691,-215.697C538.691,-207.983 538.691,-198.712 538.691,-190.112"/>
<polygon fill="black" stroke="black" points="542.191,-190.104 538.691,-180.104 535.191,-190.104 542.191,-190.104"/>
</g>
<!-- Service&#45;&gt;Pod -->
<g id="edge6" class="edge"><title>Service&#45;&gt;Pod</title>
<path fill="none" stroke="black" d="M509.378,-150.369C474.196,-137.608 415.361,-116.269 378.637,-102.949"/>
<polygon fill="black" stroke="black" points="379.498,-99.5386 368.904,-99.4192 377.111,-106.119 379.498,-99.5386"/>
</g>
<!-- RoleBinding -->
<g id="node11" class="node"><title>RoleBinding</title>
<ellipse fill="none" stroke="black" cx="495.691" cy="-90" rx="55.7903" ry="18"/>
<text text-anchor="middle" x="495.691" y="-86.3" font-family="Times New Roman,serif" font-size="14.00">RoleBinding</text>
</g>
<!-- RoleBinding&#45;&gt;ServiceAccount -->
<g id="edge10" class="edge"><title>RoleBinding&#45;&gt;ServiceAccount</title>
<path fill="none" stroke="black" d="M510.621,-72.411C518.353,-63.8197 527.947,-53.1594 536.526,-43.6275"/>
<polygon fill="black" stroke="black" points="539.342,-45.7306 543.43,-35.9562 534.139,-41.0478 539.342,-45.7306"/>
</g>
<!-- Role -->
<g id="node12" class="node"><title>Role</title>
<ellipse fill="none" stroke="black" stroke-dasharray="1,5" cx="443.691" cy="-18" rx="27.8951" ry="18"/>
<text text-anchor="middle" x="443.691" y="-14.3" font-family="Times New Roman,serif" font-size="14.00">Role</text>
</g>
<!-- RoleBinding&#45;&gt;Role -->
<g id="edge11" class="edge"><title>RoleBinding&#45;&gt;Role</title>
<path fill="none" stroke="black" d="M483.368,-72.411C476.771,-63.5304 468.531,-52.4391 461.273,-42.6684"/>
<polygon fill="black" stroke="black" points="463.986,-40.4511 455.213,-34.5108 458.367,-44.6254 463.986,-40.4511"/>
</g>
<!-- ClusterRoleBinding -->
<g id="node13" class="node"><title>ClusterRoleBinding</title>
<ellipse fill="none" stroke="black" cx="674.691" cy="-90" rx="81.4863" ry="18"/>
<text text-anchor="middle" x="674.691" y="-86.3" font-family="Times New Roman,serif" font-size="14.00">ClusterRoleBinding</text>
</g>
<!-- ClusterRoleBinding&#45;&gt;ServiceAccount -->
<g id="edge12" class="edge"><title>ClusterRoleBinding&#45;&gt;ServiceAccount</title>
<path fill="none" stroke="black" d="M648.078,-72.9406C631.901,-63.1788 611.063,-50.604 593.577,-40.0517"/>
<polygon fill="black" stroke="black" points="595.15,-36.9135 584.78,-34.7434 591.534,-42.9068 595.15,-36.9135"/>
</g>
<!-- ClusterRole -->
<g id="node14" class="node"><title>ClusterRole</title>
<ellipse fill="none" stroke="black" stroke-dasharray="1,5" cx="699.691" cy="-18" rx="53.8905" ry="18"/>
<text text-anchor="middle" x="699.691" y="-14.3" font-family="Times New Roman,serif" font-size="14.00">ClusterRole</text>
</g>
<!-- ClusterRoleBinding&#45;&gt;ClusterRole -->
<g id="edge13" class="edge"><title>ClusterRoleBinding&#45;&gt;ClusterRole</title>
<path fill="none" stroke="black" d="M680.871,-71.6966C683.686,-63.8132 687.082,-54.3042 690.21,-45.5464"/>
<polygon fill="black" stroke="black" points="693.515,-46.699 693.582,-36.1043 686.923,-44.3446 693.515,-46.699"/>
</g>
</g>
</svg>
