<?xml version="1.0" encoding="UTF-8" standalone="no"?>
<!DOCTYPE svg PUBLIC "-//W3C//DTD SVG 1.1//EN"
 "http://www.w3.org/Graphics/SVG/1.1/DTD/svg11.dtd">
<!-- Generated by graphviz version 2.38.0 (20140413.2041)
 -->
<!-- Title: %3 Pages: 1 -->
<svg width="683pt" height="260pt"
 viewBox="0.00 0.00 682.93 260.00" xmlns="http://www.w3.org/2000/svg" xmlns:xlink="http://www.w3.org/1999/xlink">
<g id="graph0" class="graph" transform="scale(1 1) rotate(0) translate(4 256)">
<title>%3</title>
<polygon fill="white" stroke="none" points="-4,4 -4,-256 678.934,-256 678.934,4 -4,4"/>
<!-- HorizontalPodAutoscaler -->
<g id="node1" class="node"><title>HorizontalPodAutoscaler</title>
<ellipse fill="none" stroke="black" cx="102.691" cy="-234" rx="102.882" ry="18"/>
<text text-anchor="middle" x="102.691" y="-230.3" font-family="Times New Roman,serif" font-size="14.00">HorizontalPodAutoscaler</text>
</g>
<!-- Deployment -->
<g id="node2" class="node"><title>Deployment</title>
<ellipse fill="none" stroke="black" cx="102.691" cy="-162" rx="54.6905" ry="18"/>
<text text-anchor="middle" x="102.691" y="-158.3" font-family="Times New Roman,serif" font-size="14.00">Deployment</text>
</g>
<!-- HorizontalPodAutoscaler&#45;&gt;Deployment -->
<g id="edge1" class="edge"><title>HorizontalPodAutoscaler&#45;&gt;Deployment</title>
<path fill="none" stroke="black" d="M102.691,-215.697C102.691,-207.983 102.691,-198.712 102.691,-190.112"/>
<polygon fill="black" stroke="black" points="106.191,-190.104 102.691,-180.104 99.191,-190.104 106.191,-190.104"/>
</g>
<!-- Pod -->
<g id="node3" class="node"><title>Pod</title>
<ellipse fill="none" stroke="black" stroke-dasharray="5,2" cx="264.691" cy="-90" rx="27" ry="18"/>
<text text-anchor="middle" x="264.691" y="-86.3" font-family="Times New Roman,serif" font-size="14.00">Pod</text>
</g>
<!-- Deployment&#45;&gt;Pod -->
<g id="edge2" class="edge"><title>Deployment&#45;&gt;Pod</title>
<path fill="none" stroke="black" stroke-dasharray="5,2" d="M134.697,-147.17C163.237,-134.838 204.775,-116.89 233.167,-104.621"/>
<polygon fill="black" stroke="black" points="234.827,-107.717 242.619,-100.537 232.051,-101.291 234.827,-107.717"/>
</g>
<!-- ConfigMap -->
<g id="node8" class="node"><title>ConfigMap</title>
<ellipse fill="none" stroke="black" cx="264.691" cy="-18" rx="51.9908" ry="18"/>
<text text-anchor="middle" x="264.691" y="-14.3" font-family="Times New Roman,serif" font-size="14.00">ConfigMap</text>
</g>
<!-- Pod&#45;&gt;ConfigMap -->
<g id="edge7" class="edge"><title>Pod&#45;&gt;ConfigMap</title>
<path fill="none" stroke="black" d="M264.691,-71.6966C264.691,-63.9827 264.691,-54.7125 264.691,-46.1124"/>
<polygon fill="black" stroke="black" points="268.191,-46.1043 264.691,-36.1043 261.191,-46.1044 268.191,-46.1043"/>
</g>
<!-- PersistentVolumeClaim -->
<g id="node9" class="node"><title>PersistentVolumeClaim</title>
<ellipse fill="none" stroke="black" cx="99.6909" cy="-18" rx="94.7833" ry="18"/>
<text text-anchor="middle" x="99.6909" y="-14.3" font-family="Times New Roman,serif" font-size="14.00">PersistentVolumeClaim</text>
</g>
<!-- Pod&#45;&gt;PersistentVolumeClaim -->
<g id="edge8" class="edge"><title>Pod&#45;&gt;PersistentVolumeClaim</title>
<path fill="none" stroke="black" d="M242.438,-79.5595C217.885,-69.143 177.678,-52.0853 146.182,-38.7234"/>
<polygon fill="black" stroke="black" points="147.286,-35.3902 136.714,-34.7066 144.553,-41.8342 147.286,-35.3902"/>
</g>
<!-- ServiceAccount -->
<g id="node10" class="node"><title>ServiceAccount</title>
<ellipse fill="none" stroke="black" cx="477.691" cy="-18" rx="68.7879" ry="18"/>
<text text-anchor="middle" x="477.691" y="-14.3" font-family="Times New Roman,serif" font-size="14.00">ServiceAccount</text>
</g>
<!-- Pod&#45;&gt;ServiceAccount -->
<g id="edge9" class="edge"><title>Pod&#45;&gt;ServiceAccount</title>
<path fill="none" stroke="black" d="M288.299,-81.2413C321.53,-70.3205 382.938,-50.1393 426.824,-35.7169"/>
<polygon fill="black" stroke="black" points="428.053,-38.9971 436.461,-32.5499 425.868,-32.347 428.053,-38.9971"/>
</g>
<!-- PodDisruptionBudget -->
<g id="node4" class="node"><title>PodDisruptionBudget</title>
<ellipse fill="none" stroke="black" cx="264.691" cy="-162" rx="89.8845" ry="18"/>
<text text-anchor="middle" x="264.691" y="-158.3" font-family="Times New Roman,serif" font-size="14.00">PodDisruptionBudget</text>
</g>
<!-- PodDisruptionBudget&#45;&gt;Pod -->
<g id="edge3" class="edge"><title>PodDisruptionBudget&#45;&gt;Pod</title>
<path fill="none" stroke="black" d="M264.691,-143.697C264.691,-135.983 264.691,-126.712 264.691,-118.112"/>
<polygon fill="black" stroke="black" points="268.191,-118.104 264.691,-108.104 261.191,-118.104 268.191,-118.104"/>
</g>
<!-- Ingress -->
<g id="node5" class="node"><title>Ingress</title>
<ellipse fill="none" stroke="black" cx="471.691" cy="-234" rx="37.0935" ry="18"/>
<text text-anchor="middle" x="471.691" y="-230.3" font-family="Times New Roman,serif" font-size="14.00">Ingress</text>
</g>
<!-- Service -->
<g id="node7" class="node"><title>Service</title>
<ellipse fill="none" stroke="black" cx="409.691" cy="-162" rx="37.8943" ry="18"/>
<text text-anchor="middle" x="409.691" y="-158.3" font-family="Times New Roman,serif" font-size="14.00">Service</text>
</g>
<!-- Ingress&#45;&gt;Service -->
<g id="edge4" class="edge"><title>Ingress&#45;&gt;Service</title>
<path fill="none" stroke="black" d="M457.622,-217.116C449.616,-208.076 439.436,-196.583 430.519,-186.515"/>
<polygon fill="black" stroke="black" points="432.954,-183.986 423.704,-178.821 427.714,-188.628 432.954,-183.986"/>
</g>
<!-- ServiceMonitor -->
<g id="node6" class="node"><title>ServiceMonitor</title>
<ellipse fill="none" stroke="black" cx="349.691" cy="-234" rx="66.8882" ry="18"/>
<text text-anchor="middle" x="349.691" y="-230.3" font-family="Times New Roman,serif" font-size="14.00">ServiceMonitor</text>
</g>
<!-- ServiceMonitor&#45;&gt;Service -->
<g id="edge5" class="edge"><title>ServiceMonitor&#45;&gt;Service</title>
<path fill="none" stroke="black" d="M364.215,-216.055C371.802,-207.204 381.207,-196.231 389.492,-186.566"/>
<polygon fill="black" stroke="black" points="392.272,-188.7 396.123,-178.829 386.957,-184.144 392.272,-188.7"/>
</g>
<!-- Service&#45;&gt;Pod -->
<g id="edge6" class="edge"><title>Service&#45;&gt;Pod</title>
<path fill="none" stroke="black" d="M384.102,-148.647C359.337,-136.691 321.777,-118.559 295.409,-105.83"/>
<polygon fill="black" stroke="black" points="296.773,-102.602 286.246,-101.406 293.73,-108.905 296.773,-102.602"/>
</g>
<!-- RoleBinding -->
<g id="node11" class="node"><title>RoleBinding</title>
<ellipse fill="none" stroke="black" cx="414.691" cy="-90" rx="55.7903" ry="18"/>
<text text-anchor="middle" x="414.691" y="-86.3" font-family="Times New Roman,serif" font-size="14.00">RoleBinding</text>
</g>
<!-- RoleBinding&#45;&gt;ServiceAccount -->
<g id="edge10" class="edge"><title>RoleBinding&#45;&gt;ServiceAccount</title>
<path fill="none" stroke="black" d="M429.621,-72.411C437.353,-63.8197 446.947,-53.1594 455.526,-43.6275"/>
<polygon fill="black" stroke="black" points="458.342,-45.7306 462.43,-35.9562 453.139,-41.0478 458.342,-45.7306"/>
</g>
<!-- Role -->
<g id="node12" class="node"><title>Role</title>
<ellipse fill="none" stroke="black" stroke-dasharray="1,5" cx="362.691" cy="-18" rx="27.8951" ry="18"/>
<text text-anchor="middle" x="362.691" y="-14.3" font-family="Times New Roman,serif" font-size="14.00">Role</text>
</g>
<!-- RoleBinding&#45;&gt;Role -->
<g id="edge11" class="edge"><title>RoleBinding&#45;&gt;Role</title>
<path fill="none" stroke="black" d="M402.368,-72.411C395.771,-63.5304 387.531,-52.4391 380.273,-42.6684"/>
<polygon fill="black" stroke="black" points="382.986,-40.4511 374.213,-34.5108 377.367,-44.6254 382.986,-40.4511"/>
</g>
<!-- ClusterRoleBinding -->
<g id="node13" class="node"><title>ClusterRoleBinding</title>
<ellipse fill="none" stroke="black" cx="593.691" cy="-90" rx="81.4863" ry="18"/>
<text text-anchor="middle" x="593.691" y="-86.3" font-family="Times New Roman,serif" font-size="14.00">ClusterRoleBinding</text>
</g>
<!-- ClusterRoleBinding&#45;&gt;ServiceAccount -->
<g id="edge12" class="edge"><title>ClusterRoleBinding&#45;&gt;ServiceAccount</title>
<path fill="none" stroke="black" d="M567.078,-72.9406C550.901,-63.1788 530.063,-50.604 512.577,-40.0517"/>
<polygon fill="black" stroke="black" points="514.15,-36.9135 503.78,-34.7434 510.534,-42.9068 514.15,-36.9135"/>
</g>
<!-- ClusterRole -->
<g id="node14" class="node"><title>ClusterRole</title>
<ellipse fill="none" stroke="black" stroke-dasharray="1,5" cx="618.691" cy="-18" rx="53.8905" ry="18"/>
<text text-anchor="middle" x="618.691" y="-14.3" font-family="Times New Roman,serif" font-size="14.00">ClusterRole</text>
</g>
<!-- ClusterRoleBinding&#45;&gt;ClusterRole -->
<g id="edge13" class="edge"><title>ClusterRoleBinding&#45;&gt;ClusterRole</title>
<path fill="none" stroke="black" d="M599.871,-71.6966C602.686,-63.8132 606.082,-54.3042 609.21,-45.5464"/>
<polygon fill="black" stroke="black" points="612.515,-46.699 612.582,-36.1043 605.923,-44.3446 612.515,-46.699"/>
</g>
</g>
</svg>
